<?xml version="1.0" encoding="utf-8"?>
<!DOCTYPE svg PUBLIC "-//W3C//DTD SVG 1.1//EN" "http://www.w3.org/Graphics/SVG/1.1/DTD/svg11.dtd">
<svg version="1.1" xmlns="http://www.w3.org/2000/svg" width="512" height="563" viewBox="0 0 512 563">
<g>
<rect fill="#F9F2DE" width="512" height="563" />
</g>
<g transform="scale(1.293,1.293)">
<g transform="translate(54.9,63.75)">
    <path stroke="none" fill="#ffffff" d="M68.55 265.5 L68.85 265.5 69.3 266 69.45 266.35 69.6 266.5 69.75 267 69.85 267.6 68.85 268.65 68.55 267.85 68.35 266.7 68.35 265.85 68.55 265.5"/>
    <path stroke="none" fill="#ffffff" d="M130 170.6 L129.3 170.75 128 171.6 126.8 172.75 126.35 173.55 114.85 179.8 102.25 182.9 101.9 183.8 101.85 184.15 101.65 184.4 101.3 185.3 100.55 186.35 99.65 187.2 99.65 187.35 98.5 188.15 97.5 188.7 97.2 188.95 96.8 189.05 95.65 189.6 94.95 189.75 94.75 189.9 90.1 191.8 85.85 194.55 84.85 195.5 84.05 196.5 83.5 197.55 75.1 200.75 67.8 204.85 47.9 218.5 40.6 227.85 36.4 238.3 52.1 241.45 62.55 239.4 73.55 238.25 75.35 237.8 78.25 236.25 93.95 230 103.3 227.85 112.75 222.7 128.4 212.2 144.1 199.65 144.25 199.2 144.5 198.8 144.5 198.6 144.85 197.8 144.9 197.2 145.05 196.65 145.15 195.5 144.85 192.6 144.1 189.25 143.5 188.85 142.45 187.95 141.4 186.55 139.9 184 139.85 183.6 139.75 183.45 139.65 183.35 138.6 182.15 136.9 180.9 136.8 180.85 135.25 179.5 133.05 176.9 131.75 174.3 131.45 173 131.35 171.7 131.6 170.4 130 170.6 M215.95 162.1 L215 168.4 215.15 171.1 215.7 173.55 216.6 175.65 217.7 177.25 218.25 177.8 219.4 178.6 220.5 179.1 221.7 179.25 222.85 179.1 224.1 178.6 225.35 177.8 235 169.35 251.75 156.8 259.55 148.4 261.7 145.2 261.8 144.9 262.35 144.2 264.35 140.1 259.1 133.85 255.65 131.4 252.7 129.75 251.75 129.35 250.05 128.8 248.5 128.65 247.15 128.75 246 129.25 245.5 129.65 244.45 128.4 243.5 127.65 242.55 127.1 241.8 127 241.05 127.1 240.4 127.65 239.75 128.4 239.2 129.65 238.85 129.1 238.1 128.3 237 127.75 235.7 127.5 235 127.5 219.4 132.75 219.4 152.65 215.95 162.1 M158.7 154.7 L158.7 165.15 168.15 166.2 175.5 164.1 179.6 153.65 184.85 144.25 180.65 145.35 158.7 154.7 M260.5 19.05 L261.9 21.3 263.25 25.1 265.35 33.45 264.55 33.75 264 34.2 263.5 34.65 263.2 35.3 263.05 35.95 263 36.75 263.05 37.65 263.45 39.6 263.45 40 263.5 40.5 263.45 40.85 263.45 41.25 263.35 41.6 263.25 41.6 263.25 42 262.85 42.6 262.5 42.95 262.45 42.95 262.45 43.15 262.1 43.3 261.8 43.55 261.15 43.9 261.35 44.6 261.4 45.45 261.35 46.15 261.15 47 260.3 48.5 259.1 50.15 257.75 52.95 257.5 53.8 257.2 54.55 256.95 55.9 256.95 56.5 247.95 69.95 235.85 84.05 232.25 87.15 228.8 89.45 225.65 90.95 224.45 92.1 223.15 93.05 221.7 93.75 220.45 94.1 220.1 94.3 216.35 94.65 213.65 94.3 213.5 94.25 213.1 94.25 211.1 93.95 210.45 93.75 210.15 93.6 210.05 93.45 209.95 93.25 209.95 93.05 209.35 93.7 208.8 94.05 208.7 94.25 208 94.6 207.3 94.85 206.45 94.85 206 94.75 205.55 94.75 203.7 94.05 202.7 92.25 202.35 91.75 200.95 90.45 199.9 89.8 199.4 89.6 197.45 89 195.3 88.85 192.2 83.6 191.05 82.2 189.8 81.25 189.1 80.85 187.65 80.5 186.95 80.5 175.85 100.5 173.75 105 173.35 106.2 173.35 106.65 172.55 107.45 171.1 109.85 168.65 117.6 168.15 120.2 166.85 120.95 165.85 121.8 165.05 122.7 164 124.5 163.8 125.45 163.75 126.45 164 127.5 163.05 133.2 162.9 135.9 164.05 137.5 164.85 138.2 165.8 138.6 166.3 138.7 166.7 138.7 167.15 138.65 168.15 138.35 169.15 137.8 170.25 136.95 171.15 135.95 171.65 135.55 173.1 134.75 173.6 134.6 174.95 134.5 175.35 134.55 175.85 134.7 176.65 135.2 177.55 135.9 177.85 135.15 178.35 134.6 179 134.2 179.9 134 181.4 133.95 184.05 134.55 184.85 134.85 185.05 134.85 185.25 134.9 185.75 134.95 185.75 134.9 186.55 134.9 186.7 134.75 186.7 134.7 186.85 134.7 187 134.6 187 134.55 187.15 134.55 187.7 134.05 187.85 133.4 188 133.25 188.15 132.3 188.1 131.95 188 129.65 187.45 128.75 187.1 127.75 186.65 125.45 186.5 124.05 187.15 116.2 186.95 113.65 186.1 111.45 185.5 110.5 184.85 109.75 189.05 103.5 189.75 102.7 191.15 101.4 192.45 100.3 193.7 99.55 194.3 99.3 199.15 99.8 200.55 99.85 202.85 99.65 203.55 99.5 203.85 99.5 204.25 99.35 204.75 99.3 206 100.15 207.7 101.65 209.4 103.75 212.2 108.75 219.4 123.4 220.15 122.4 221.1 121.55 222.1 120.9 224.45 120.1 227.15 119.95 228.75 120.2 230.45 120.15 232.1 119.95 235 119.35 236.2 118.9 236.45 118.7 237.3 118.35 238 117.85 238.3 117.7 238.75 117.35 239.2 117.05 253.85 117.05 254.6 117.55 257.75 118.9 267.4 121.3 269.35 122.05 272.9 123.75 275.95 125.8 278.55 128.15 280.7 130.8 282.4 133.85 284.15 139 286.3 141.15 284.15 143.2 284.8 143.45 285.45 143.8 286 144.2 286.45 144.75 287.05 145.9 287.25 146.55 287.3 147.4 287 148.6 286.75 150.65 286.75 152.2 287 153.25 287.3 153.65 286 159.25 285.85 159.35 283.35 164.85 282.4 166.15 282.2 166.3 281.4 167.5 277.95 171.55 273.7 175.6 273.1 175.4 272.6 175.35 270.35 175.5 269.75 175.6 269.25 175.85 268.6 176 265.55 177.7 264.35 178.75 261.75 180.45 259.3 181.55 257 182.05 254.9 181.9 254.55 182.8 254.2 183.4 254.15 183.6 253.95 183.75 253.6 184.2 253 184.75 252.6 184.85 252.25 185.05 251.85 185.05 251.85 185.1 251.45 185.2 251 185.15 250.6 185.15 249.65 185.05 248.6 185.05 246.75 185.3 245.2 185.75 243.9 186.55 243.4 187.1 Q238.2 189.75 232.95 192.35 L232.95 193.6 233.3 195.95 234 198.2 235.05 200.2 236.5 202.05 238.25 203.7 241.7 205.8 244.45 207 244.8 207.75 245.45 208.75 249.75 213.2 254.9 217.45 254.95 218 255.05 218.35 257.65 222.85 269.55 238.3 269.4 239.4 269.4 239.8 269.25 241.15 268.95 242.05 268.9 242.4 268.45 243.55 269.15 243.85 269.45 244.05 270.35 244.85 270.8 245.65 271.4 247.45 271.65 249.8 270.05 251.45 268.05 252.9 265.55 253.95 264.15 254.35 263.9 254.35 262.7 254.8 255.5 255.5 246.5 255.05 235 241.45 234.95 241.2 234.85 241.05 233.9 239.5 233.85 239.4 223.55 225.8 211 215.35 208.95 214.65 198.9 212.05 195.35 211.55 194.35 211.45 192.05 211.7 191.55 211.9 191.1 212.2 189 210.8 187.95 210.35 187.15 210.1 186.95 210.1 186.3 211.55 186.05 211.85 185.85 212.2 185.65 212.45 185.45 212.85 185.15 213.05 184.45 213.9 183.25 214.8 181.85 215.4 180.6 215.8 180.25 215.95 178.85 216.15 178.45 216.25 177.9 216.25 172.75 216.85 169.75 217.65 Q168.5 218.25 167.3 218.8 L165.45 220.25 164.55 221.4 164.2 221.95 164 222.7 156.65 226.8 148.3 230 141.95 235.35 137.5 238.1 134.35 239.15 132.35 239.45 130.5 239.4 129.85 240.3 129.5 240.75 129.2 241.2 128.8 241.55 128.45 241.95 127.65 242.75 125.55 243.85 125 244.05 124.45 244.3 123.2 244.65 115.9 247.75 100.2 251.95 95.7 254.35 82.9 259.75 74.65 261.7 66.75 262.4 65.7 263.15 64.6 263.65 63.55 263.7 63.45 263.65 63.05 263.65 61.95 263.15 61.5 263.1 60.45 263.15 59.35 263.55 58.85 263.9 58.35 264.45 56.9 265 55.2 266.1 54.85 266.6 54.25 267.6 43.75 268.65 40.8 269.35 38.25 269.4 37.05 269.15 36.05 268.8 35.1 268.25 34.35 267.6 30.5 267.3 27.5 266.5 25.25 265.2 24.45 264.35 23.9 263.45 12.4 257.15 1.95 247.75 1.2 246.7 0.65 245.15 0.45 244.15 0.15 241.9 0 235.9 0.9 225.8 6.15 219.5 10.3 212.2 17.6 208.05 18.15 207.05 19.45 205.4 20.95 204.4 22.85 203.9 23.9 203.85 24.4 202.85 25.4 201.25 26 200.75 26.6 200.4 26.75 200.25 26.75 200.2 26.9 200.2 27.25 200.1 28.3 199.4 28.55 198.9 28.75 198.55 28.85 198.5 29.05 198 29.1 197.55 30.7 197.7 32.45 197.25 34.35 196.15 37.35 193.65 38.7 192.9 40.1 192.6 40.8 192.55 41.5 192.65 42.15 192.95 42.75 193.4 43.25 192.35 44.05 191.45 44.95 190.65 47.35 189.35 48.75 188.85 52.1 188.15 53.8 187.6 Q54.4 187.35 54.95 187.05 L55.35 186.95 57.85 185.5 58.8 184.7 59.3 184 59.55 183.8 60.5 181.9 77.2 175.6 84.5 171.4 91.8 166.2 104.4 162.05 115.9 156.8 127.4 152.65 127.8 151.05 128.4 147.4 128.95 145.9 129.7 144.75 130.6 143.8 131.6 143.2 129.85 136.5 129.65 132.7 129.75 132.2 130.05 131.3 130.25 130.95 130.5 130.7 130.25 130.1 130 128.75 130 127.15 130.25 125.35 131.6 121.45 131.75 120.65 131.8 119.9 131.75 118.6 131.6 118.15 132.3 117.05 132.6 116.05 132.1 115.75 130.9 115.3 130.4 115.2 130 115.2 128.15 115.4 127.2 115.75 126.2 116.3 123.2 118.8 121.3 119.9 119.55 120.4 117.95 120.2 111.1 127.05 104.4 131.95 97.55 134.9 95.75 135.3 90.8 135.9 87.4 134.2 85.4 132.55 83.5 130.45 81 126.65 78.85 121.8 77.2 116.05 79.8 103.75 79.9 98.55 79.3 94.05 84.5 84.7 85.05 83.2 86.15 81.5 86.65 81.1 87.65 80.5 87.85 81.1 89.05 83.05 91.3 85.45 94.3 87.75 98.15 89.95 100 89.4 103.8 88.85 105.35 88.8 105.75 88.7 106.2 88.65 106.55 88.45 107 88.35 107.35 88.15 107.75 88.05 108.3 87.55 108.5 87.3 108.8 87.05 109 86.7 109.2 86.4 109.6 85.75 110.35 85.85 111.35 85.75 113.55 84.9 116.05 83.15 119 80.5 119.6 79.65 120.25 78.95 123.3 76.15 123.95 75.75 124.5 75.35 125.65 74.75 127.3 74.3 128.4 74.25 137.85 68 145.15 60.65 151.4 43.9 154.55 33.45 154.75 30.1 155.05 28.7 156.05 26.35 156.85 25.4 157.7 24.6 158.7 24.05 165 9.4 178.6 2.1 188 0 198.45 7.35 199.8 8.1 200.85 9.1 201.6 10.2 202.1 11.45 202.15 12.8 201.9 14.35 201.7 15.1 200.55 17.8 201.6 30.35 209.95 29.3 210.9 29.4 211.75 29.4 212.55 29.15 213.05 28.8 213.3 28.75 213.9 28.1 214.3 27.35 214.4 27.25 214.4 27.1 214.85 26.25 215.2 25.1 224.55 19.9 225.15 19.2 225.8 18.6 228.9 16.25 229.5 15.95 230.05 15.6 231.85 14.95 232.9 14.7 234 14.65 244.45 10.45 250.1 12.15 253.4 13.6 254.9 14.4 258.6 17.05 260.5 19.05"/>
  </g>
</g>
</svg>