<?xml version="1.0" encoding="utf-8"?>
<!DOCTYPE svg PUBLIC "-//W3C//DTD SVG 1.1//EN" "http://www.w3.org/Graphics/SVG/1.1/DTD/svg11.dtd">
<svg version="1.1" xmlns="http://www.w3.org/2000/svg" width="512" height="563" viewBox="0 0 512 563">
<g>
<rect fill="#F9F2DE" width="512" height="563" />
</g>
<g transform="scale(1.293,1.293)">
<g transform="translate(69,54.4)">
    <path stroke="none" fill="#CC0256" d="M49.5 168.25 L50.5 168.9 51.7 169.45 54.2 170 56.9 169.95 59.95 169.3 70.4 168.25 73 165.75 75.55 164 77.9 162.9 79.35 162.55 81.55 162.6 82.95 163 92.35 158.05 94.65 156.5 95.4 155.8 95.5 155.7 93.4 154.7 95.5 142.1 94.7 139.3 94.6 138.65 94.65 137.15 94.85 136.25 95.25 135.65 95.75 135.1 96.55 134.8 96.4 134.2 96.25 133.75 95.9 133.2 95.5 132.75 96.55 131.65 95.5 124.35 94.9 123.9 94.25 123.6 93.55 123.45 92.8 123.55 92 123.7 90.15 124.65 89.2 125.4 87.55 127.2 86.05 128.5 Q85.25 128.9 84.5 129.25 L82.95 129.55 83.15 130.25 83.15 130.55 83.2 130.9 83.15 131.15 83.15 131.45 82.95 131.9 82.6 132.1 82.55 132.2 82.2 132.4 82.15 132.5 81.8 132.55 81.5 132.7 80.95 132.7 79.9 133.25 79.5 133.55 79.25 133.95 78.9 134.85 78.8 135.85 65.2 148.35 53.7 160.95 49.5 168.25 M198.45 88.6 L197.95 88.8 177 78.35 174.95 76.7 173.1 75.6 154.05 68.45 152.4 67.95 152.1 67.9 151.95 67.9 151.3 67.95 149.7 68.45 148.8 68.95 148.8 71 148 71.1 147.3 71.25 146.55 71.55 145.25 72.55 144.1 74.2 142.85 76.5 142.5 76.85 142.45 76.85 142.45 77.05 141.95 77.5 140.8 78.1 140.45 78.15 140.15 78.3 139.45 78.35 121.6 95.1 121.65 96.35 121.75 96.55 121.8 97.95 121.65 98.5 121.6 98.65 121.6 99.15 121.45 99.5 121.45 99.7 121.3 100.3 121.2 100.35 120.8 101.15 120.65 101.25 120.2 102.05 119.35 102.75 118.9 103.05 118.5 103.4 118.5 136.85 120.85 137.1 122.2 137.4 123.75 137.95 124.8 136.85 125.25 137.05 125.85 137.15 127.1 137.1 127.75 136.9 128.45 136.65 136.25 132.75 137.8 132.9 138.15 132.85 138.55 132.85 139.35 132.7 140.9 131.85 142.55 130.6 144.1 129.75 144.8 129.45 145.65 129.25 147.15 129.2 148 129.25 148.8 129.55 150.15 127.7 153.55 124.45 157.7 121.5 165.5 118.05 181.2 107.6 182.25 107.6 198.2 100.3 202.4 97.4 203.55 96.15 204.2 95.1 201.25 90.75 199.75 89.15 199.1 88.7 198.45 88.6 M226.15 16.7 L226.8 16.75 227.1 16.8 227.4 17 227.8 17.4 228.25 18 228.4 18.7 228.45 19.55 228.4 20.05 228.4 20.65 228.25 21.95 215.7 28.2 198.95 33.4 187.5 42.8 184.55 43.05 183.35 43.35 179.4 45.4 177.55 45.9 177 45.95 174.65 51.9 174.4 53.3 174.4 54.6 174.65 55.8 174.95 56.4 175.8 56.9 176.5 57.7 176.65 58.05 176.95 59 177 59.5 189.6 68.95 203.15 78.35 209.15 79.3 209.45 79.3 209.8 79.35 210.1 79.35 210.45 79.4 212.6 81.45 215.7 81.45 221.95 84.65 222.25 84.4 222.6 84.25 223 83.9 223 83.8 223.15 83.8 223.35 83.45 223.35 83.3 223.4 83.3 223.5 83.2 223.75 82.55 223.75 81.65 223.7 81.5 223.7 80.65 223.05 78.35 223.05 76.25 225.8 76.4 228.05 76.8 229.3 77.35 231.1 78.5 231.45 78.7 231.55 78.7 231.9 78.85 232.65 79.1 233.25 79.1 233.5 79.05 233.75 79.05 233.85 78.95 234.2 78.75 234.55 78.35 235 78.75 235.55 79.1 236 79.3 236.6 79.4 236.6 78.35 248.4 86.35 251.75 89.25 254.05 91.8 255.45 94.05 255.9 94.5 257 96.1 257.5 97.65 257.55 98.2 257.55 102.4 254.35 106.6 242.85 108.65 240.2 108.9 239.3 109.2 237.65 110.55 236.65 111.2 234.65 111.8 235.55 111.8 235.55 113.9 234.55 113.9 234 112.9 233.55 111.25 233.5 110.75 225.1 113.9 217.8 119.1 197.95 127.5 197.35 127.25 196.7 127.2 196 127.25 193.95 127.9 190 130.85 188.45 131.65 187.65 131.85 186.95 131.9 186.1 131.85 185.4 131.65 167.65 144.2 131.95 162.1 123.75 168.25 123.75 171.4 123.05 171.1 121.85 170.85 121.4 170.85 120.5 170.95 120.1 171.1 119.8 171.4 119.45 171.6 119.2 171.95 118.6 173.45 118.5 201.7 117.7 203.7 116.95 207.65 116.95 211.3 117.7 214.7 118.5 216.35 118.9 216.7 120.9 217.85 125.25 219.4 139.45 222.6 150.9 220.55 162.4 220.55 164.45 221.25 166.55 221.55 167.65 222.6 168.2 221.8 168.6 221.45 169.5 220.95 170.1 220.75 173.05 220.3 176.85 220.3 179.15 220.55 194.7 227.25 195.85 227.85 196.3 228.25 197.3 228.9 197.9 229.1 198.35 229.15 198.95 229.15 200.05 228.85 211.55 236.15 223.05 242.45 223 242.6 222.9 242.9 222.8 243.2 222.7 243.7 222.45 244.25 221.7 246.6 221.25 247.5 217.8 257.1 212.65 258.6 211.55 259.15 209.5 259.9 207.8 259.95 207.05 259.7 206.4 259.35 205.75 258.75 205.3 258.1 202.15 258.1 187.5 267.55 182.25 281.1 174.35 286.3 171.6 287.35 170.55 287.5 170.05 287.5 169.7 287.45 167.65 288.45 164.75 286.85 163.5 286.5 162.4 286.35 156.15 287.45 159.25 281.1 163.45 275.95 162.95 275.1 162.8 274.25 162.8 273.45 163.6 271.9 165.35 270.3 166.55 269.6 168.3 267.55 169.4 265.7 169.9 263.9 169.7 262.3 170.4 262.25 170.75 262.1 170.75 262.05 171.15 262.05 171.3 261.95 171.3 261.9 171.45 261.9 172.55 261.45 173.1 261 173.25 260.8 173.75 260.45 174.95 259.15 177 255 176.65 254.15 175.8 252.85 175.25 252.4 174.55 251.9 172.95 251.2 171 250.8 168.65 250.7 164.5 251.15 135.35 258.6 134.95 258.65 134.55 258.6 134.35 258.45 134.2 258.3 134.2 258.1 126.85 258.1 125.8 259.15 125.7 258.65 125.5 258.35 125.2 258.15 124.8 258.1 123.35 258.9 122.15 259.15 121.6 259.05 121.2 258.9 120.85 258.5 120.6 258.1 119.55 258.1 114.4 256.5 107 252.9 106.1 252.55 105.85 252.5 104.8 252.05 102.5 250.55 97.6 245.6 95.5 240.35 95.2 239.3 94.55 235.2 94.45 204.85 94.3 204.35 94.2 203.05 94.25 202.1 94.9 199.4 96.55 196.45 95.9 194.9 94.45 192.45 93.65 191.5 92.65 190.6 90.45 189.45 89.2 189.15 85.05 190.2 53.7 209 52.65 211.1 51.6 211.1 28.65 222.6 20.1 224.65 10.7 225.85 8.55 225.7 7.55 225.55 6.8 225.3 5.6 224.7 1.45 216.35 0.7 215.3 0.25 214.2 0 213.15 0.1 212.1 0.3 211.05 0.8 209.95 1.5 208.9 2.5 207.95 2.3 207.7 2.2 207.45 1.85 206.15 1.65 204.75 1.65 204 1.55 203.05 1.45 194.4 4.55 180.75 4.05 180.15 3.75 179.7 3.55 179.15 3.5 178.7 15 171.4 18.15 171.4 18.15 170.3 31.75 160.95 45.1 149.35 46.55 147.25 47.45 145.25 48.2 145.6 49.15 145.85 51.35 145.5 53.9 144.25 56.85 142.1 72.55 127.5 72.55 125.4 74.6 125.4 74.6 124.35 76.4 123.3 79.1 120.9 79.55 120.65 79.85 120.4 80.5 120.15 80.85 120.15 90.3 111.8 97.6 102.4 98.65 88.8 98.95 88.45 99.3 88.15 99.6 87.8 99.75 87.6 99.9 87.5 99.95 87.25 100.3 86.7 100.75 85.9 100.75 85.6 100.9 84.9 100.9 82.7 100.75 81.45 99.65 80.45 99.8 80.4 100.3 80.4 100.85 80.3 101 80.15 101 80.1 101.2 80.1 101.3 80 101.45 79.95 101.45 79.6 101.4 79.2 100.75 78.35 100.2 77.8 99.9 77.35 99.75 76.85 99.65 76.5 99.75 76.1 99.9 75.75 100.2 75.45 100.75 75.2 100.95 71.2 101.45 69.35 102.25 68.2 102.8 67.9 103.05 61.8 103.55 58.95 104.4 57 104.9 56.4 105 50.75 105.15 49.55 105.45 48.6 106 48 107.3 41.3 107.2 39.95 107.05 39.3 106.75 38.7 106 37.55 106 35.5 106.25 35.15 106.65 34.85 106.9 34.5 107.05 34.3 107.2 34.2 107.3 33.95 107.65 33.45 108.05 32.6 108.05 32.3 108.2 31.6 108.2 29.45 108.05 28.2 108.1 27.2 108.3 26.3 108.6 25.6 109.1 25.05 110.15 12.5 110.45 10.95 111.4 8.35 113 6.25 115.1 4.65 116.4 4.1 117.45 3.15 118.5 2.5 119.55 2.15 120.6 2.05 120.6 0 128.95 2.05 129.85 2.1 130.8 2.3 132.1 2.75 133.3 3.6 134.65 5.25 135.25 6.25 134.25 6.55 133.35 7.1 132.6 7.85 131.6 9.95 131.3 11.3 131.05 14.6 136.25 26.05 144.6 37.55 145.4 37.65 146.2 37.8 147.05 38.1 148.85 39.1 151.95 41.75 152.9 42.15 153.75 42.4 154.55 42.4 154.9 42.35 154.9 42.3 155.3 42.3 155.9 41.9 156.15 41.6 156.4 41.35 156.5 41.1 156.85 40.6 157.2 39.7 164.65 36.5 165 36.2 167.75 34.5 170.45 32.3 170.8 31.8 171 31.65 172.7 29.8 174.55 27.05 175.95 24.05 176.3 22.8 176.5 22.45 176.85 21.25 177 20.85 174.25 19.1 166.2 14.9 164.45 14.45 163.7 14.45 163.45 14.6 163.2 14.05 163.15 13.45 163.2 12.8 163.7 11.5 163.85 11.15 164.15 10.85 164.4 10.45 165.5 9.35 167.75 8.3 169.4 7.25 170.4 6.2 170.65 5.65 170.75 5.2 171.8 6.25 172.65 5.25 173.65 4.35 174.85 3.6 177.7 2.6 181.25 2.1 183.35 2.05 194.85 0 201.45 0.1 206.55 0.85 207.5 1.3 208.15 1.75 208.4 2.05 211.3 3.9 212.3 4.35 214 4.95 214.85 5.1 215.25 5.1 215.7 5.2 221.95 10.45 226.15 16.7"/>
  </g>
</g>
</svg>