<?xml version="1.0" encoding="utf-8"?>
<!DOCTYPE svg PUBLIC "-//W3C//DTD SVG 1.1//EN" "http://www.w3.org/Graphics/SVG/1.1/DTD/svg11.dtd">
<svg version="1.1" xmlns="http://www.w3.org/2000/svg" width="512" height="563" viewBox="0 0 512 563">
<g>
<rect fill="#F9F2DE" width="512" height="563" />
</g>
<g transform="scale(1.293,1.293)">
<g transform="translate(42.4,69)">
    <path stroke="none" fill="#ffffff" d="M202.15 48.65 L201.25 48.55 200.35 48.65 199.6 48.95 198.95 49.4 198.4 50.15 197.05 49.95 194.45 50.05 191.85 50.8 189.3 52.3 188 53.3 178.55 62.75 178.7 63.45 178.7 63.95 178.8 64.2 178.7 64.35 178.7 64.85 178.55 65.55 177.9 66.45 177.7 66.8 177.25 67.15 177.1 67.35 176.5 67.95 172.3 71.05 172.45 71.75 172.45 72.3 172.5 72.55 172.45 72.65 172.45 73.2 172.3 73.9 171.65 74.75 171.45 75.1 169.05 77.35 168.8 77.8 168.5 78.05 168.05 79.15 167.85 79.75 167.8 80.4 167.85 80.9 168.1 81.5 166.6 83.35 165.5 85.8 164.95 87.8 162.85 100.3 164.95 106.65 164.75 108.85 165.15 113.4 166.05 116.8 166.45 117.9 168.65 122.2 170.15 124.4 170.7 124.15 171.45 124.25 172.3 124.55 174.4 125.85 177 128.05 178.55 129.6 179.6 128.6 181.8 128.4 182.85 128.15 183.2 128 183.4 128 183.95 127.85 184.8 127.45 184.95 127.45 185.8 127.05 185.95 127.05 187.9 125.9 188.75 125.2 188.9 125 189.65 124.45 191.3 122.7 193.45 119.35 193.8 118.7 194.45 117.8 195.25 116.25 195.95 113.85 196.55 112.3 197.3 110.95 199.65 107.55 200.5 106.65 202.6 94.05 203.05 93.85 203.5 93.65 204.1 93.3 204.3 93.25 204.6 92.9 204.75 92.7 204.9 92.6 205.25 92.05 205.45 91.95 205.6 91.25 205.75 91.05 205.9 90.1 205.85 89 205.75 87.8 205.75 86.3 206.1 83.75 206.9 81.9 207.45 81.25 208.1 80.8 208.85 80.5 208.85 79.9 209.4 76.05 209.95 74.2 209.8 73.25 209.8 72.95 209.3 70 209.3 69.8 208.85 67.95 208.95 67.7 209.05 67.5 209.3 66.9 209.3 66.5 209.35 66.5 209.45 66.1 209.45 65.8 209.65 65.05 209.65 63.85 209.7 63.75 209.8 60.5 209.85 60.45 209.95 58.55 205.75 50.15 204.4 49.4 203.25 48.95 202.15 48.65 M160.15 40.45 L159.8 40.6 159.7 40.75 156.6 41.8 156.25 41.85 156 42.05 155.75 42.3 155.25 43.3 154.55 46 154.6 60.45 155.05 62.95 155.65 64.4 156.4 65.55 156.9 66.1 158 66.9 159.25 67.5 160.8 67.95 169.15 61.65 176.5 54.35 176.55 53.55 176.7 52.7 177 51.9 178 50.35 179.65 48.8 180.65 48.1 182.45 46.45 183.75 44.9 184.5 43.3 184.8 41.8 184.2 40.6 183.85 40.15 183.55 39.85 182.85 39.3 182.15 39.2 181.3 39.3 180.85 39.5 179.5 40.6 178.55 41.8 178.2 41.5 177.25 41 175 40.45 169.2 39.85 160.8 39.7 160.65 39.95 160.5 40.2 160.15 40.45 M273.35 4.95 L274.1 4.9 274.75 4.95 275.5 5.2 276.35 5.7 276.95 6.2 278.95 8.55 280.2 9.4 280.85 9.6 281.55 9.65 282.25 9.6 283.1 9.4 283.85 9.45 284.7 9.65 285.5 9.95 287.35 10.95 290.4 13.6 291.1 14.45 292.65 15.9 293.45 16.4 294.2 16.7 295 16.9 296.65 16.7 300.85 25.1 309.2 37.6 309.2 55.4 311.3 56.4 309.2 70.05 306.1 82.55 305.35 83.6 304.1 86.35 303.25 89.75 302.9 96.15 296.65 106.65 289.35 122.25 288.35 122.4 287.45 122.75 286.7 123.4 285.85 124.85 285.4 126.95 285.15 130.65 280.95 137.95 278.9 145.25 278.05 145.1 277.25 145.35 276.4 145.85 274.9 148 273.35 151.4 272.65 153.65 262.15 163.05 254.85 172.45 253.8 173.5 252.25 175.6 251.7 176.65 247.5 176.65 246.45 177.95 245.4 178.95 244.35 179.55 243.85 179.75 243.4 179.8 239.2 181.9 236.6 183.5 236.25 183.85 235.85 184.1 235 185 233.1 183.9 231.9 182.9 229.75 185 227.7 182.9 227.65 183.05 227.65 183.2 227.55 183.55 227.35 184.15 227.1 184.35 226.85 184.55 226.7 184.55 226.7 184.65 226.35 185 225.9 185 225.9 185.05 225.55 185.15 224.7 185.15 224.7 185.2 224.55 185.15 223.6 185.15 222.45 185 216.2 181.85 209.95 176.65 209.95 176.6 210.35 176.6 210.8 176.5 211 176.35 211.25 176.3 211.7 176.15 212.4 175.4 212.6 175.05 212.7 175 213.05 174.55 214.1 176.65 215.05 176.15 217 175.3 218.85 174.75 220.55 174.55 221.45 174.55 227.7 172.45 228.65 172.4 229.6 172.25 229.75 172.1 230.45 171.95 231.3 171.65 232.7 170.65 233 170.3 233.35 170 233.95 169.35 236.05 166.7 237.35 165.7 238 165.4 238.6 165.2 239.2 165.15 246.5 150.55 251.7 137.95 253.05 136.5 253.55 136.15 254.2 135.35 254.85 134.85 255.3 133.4 255.55 132.9 255.9 132.45 256.15 132.05 256.35 131.9 256.95 131.7 268.15 108.1 268.65 106.55 268.7 105 268.65 104.15 268.45 103.45 273.65 93 276.85 78.35 277.5 78 277.8 77.8 278.15 77.6 278.35 77.3 278.65 77.05 279.15 76.55 279.25 76.15 279.45 75.75 279.55 75.35 279.75 75 279.8 74.55 279.9 74.1 280 71.65 280.5 69.05 280.95 67.95 284.6 55.35 285.05 53.2 285.25 51.4 285.25 50.05 285.15 49.1 285.15 39.7 285.25 37.05 285.35 36.95 285.15 35.55 284.85 34.2 284.7 33.8 284.7 33.75 284.35 32.7 284.15 32.35 284.15 32.3 283.75 31.25 282.05 28.2 281.55 28.3 281.15 28.3 281.15 28.35 280.3 28.4 279.6 28.2 279.45 28.2 278.6 27.9 278.45 27.8 277.6 27.4 276.65 26.8 276.15 26.4 274.7 25.1 264.25 22.95 262.65 22.2 259.8 21.45 257.2 21.45 256 21.75 254.85 22.2 253.8 22.95 239.2 20.9 235.5 22.45 233.4 22.9 227.9 23.5 217.85 25.6 211.8 28.2 209.85 29.45 208.2 30.8 206.8 32.4 206.8 35.55 215.1 39.7 216.3 40.2 218.4 41.5 219.3 42.25 220.6 43.95 221.45 46 222.25 47.3 223.05 48.1 224.5 49.1 226.85 49.85 229.75 50.15 235 64.8 235 72.1 233.95 80.5 233 81 232.4 81.65 232.05 82.45 232.05 83.35 232.3 84.2 232.9 85.35 235 87.8 231.9 100.3 230.8 106.65 230.75 107.35 230.6 108.15 230 109.7 227.7 112.9 227.65 113 227.65 114.25 227.55 114.35 227.4 118.1 227.25 118.6 227.2 119.2 226.65 121.95 226.65 122.25 225.25 125.4 224.4 126.55 223.5 127.5 223.2 130.1 223.05 130.6 222.9 130.75 222.85 131 222.6 131.35 222.45 131.7 222.15 132.1 221.5 134.2 221.45 134.85 220.65 136.35 219.55 137.9 215.2 142.05 213.55 144 212.5 145.8 212.05 147.5 212 148.4 211.25 148.85 210.85 149.15 201.55 154.7 194.25 156.8 185.85 156.8 184.8 157.85 184.3 157.55 183.75 157.3 182.25 157 181.65 157 180.95 156.9 174.35 156.8 173.35 157.85 172.3 156.8 171.45 157.25 171.2 157.3 170.85 157.25 170.65 157.15 170.15 156.8 163.9 159.9 163.15 160.45 162.1 161.6 161.8 162.25 161.6 162.9 161.55 163.6 161.6 164.35 161.85 165.15 164.6 166.65 167.5 168.75 168.1 169.35 174.35 169.35 175.75 169.15 176.95 168.8 177.85 168.1 178.55 167.2 179.05 169.8 179 170.3 178.9 170.7 178.55 171.4 178 172.85 177.6 174.5 177.5 175.6 173.35 179.8 171.2 178.6 169.1 177.95 167 177.65 165.9 177.7 163.9 178.1 161.8 178.9 158.6 180.95 156.6 182.9 152.9 182.6 152.1 182.45 150.35 181.85 144.95 182.4 143 182.9 133.6 176.65 133.7 175.85 133.7 175.2 133.45 174.55 133.05 174 132.4 173.5 131.6 173.05 130.55 172.7 129.4 172.45 128.8 172.85 128.45 172.95 128.25 172.95 128.25 173 128.15 173.1 126.75 173.2 125.45 172.75 125.1 172.6 125.05 172.6 123.15 171.4 122.3 170.65 120.65 169.6 119.95 169.3 119.15 169.1 118.4 169.05 117.6 169.1 116.9 169.35 108.5 163.05 99.15 157.85 91.8 148.4 82.35 139 80.8 136.15 80.4 134.9 80.3 133.75 79.65 132.3 78.95 131.1 78.05 130.15 77.6 129.8 77.2 129.6 77.05 128.75 76.85 128.05 75.8 126.7 75.05 126.05 73.1 124.85 71.95 124.4 71.7 119.6 71.1 116 70.65 114.55 70.1 113.35 69.45 112.4 69.1 112.05 68.8 111.8 68.5 110.7 68.1 108.15 67.75 100.3 67.45 98.2 67.35 91.05 68.8 71.05 69 70.25 69.55 68.4 69.65 67.85 69.85 66.85 69.85 65.85 70.1 63.5 70.4 62.4 70.55 61.95 70.85 61.65 73.5 50.4 76 42.65 77.9 38.7 78.75 37.8 79.25 37.6 84.2 44.15 84.55 44.75 84.6 44.85 84.95 45.4 87.35 49.85 87.75 50.9 88.35 52.75 88.65 54.55 88.65 54.95 88.7 55.4 86.55 56.4 92.8 65.85 92.5 66.55 92.45 67.4 92.5 68.95 93 70.45 94.7 74 95.15 75.7 95.25 77.15 94.95 78.35 105.4 98.25 107.2 100.4 107.7 101.1 108.25 102.3 108.35 102.55 108.45 102.85 108.5 103.45 109.2 104.8 111.05 107.4 112.1 108.35 112.7 108.7 113.5 111.65 113.5 111.7 114.15 113.2 114.4 113.6 114.75 113.95 117.1 117.3 117.3 117.65 117.4 117.85 117.6 118.2 117.7 118.35 117.7 118.45 117.9 118.8 117.95 119.15 119.25 120.2 119.95 120.9 120.8 121.95 121 122.55 121 122.75 121.05 122.85 121.2 123.2 121.2 123.8 121.05 124.4 131.5 134.85 138.85 147.4 146.7 157.95 147.5 158.85 148.45 159.6 150.35 160.6 152.4 160.95 153.1 160.45 154.55 159.6 155.25 159.4 155.85 159.1 157.05 158.85 157.65 158.85 157.65 158.8 158.55 158.8 158.95 158.65 159.4 158.6 159.8 158.45 160.15 158.3 160.25 158.2 160.25 158.15 160.45 158.15 160.8 158 161.2 157.55 161.2 157.35 161.25 157.35 161.35 157.25 161.55 157 161.6 156.65 161.75 156.35 161.8 156 161.8 155.85 161.85 155.7 161.95 154.75 161.9 154.65 161.9 154.25 161.85 153.75 161.75 153.4 161.65 153.3 161.65 153.1 161 151.25 159.25 148.05 156.6 144.2 144.1 134.85 144.1 126.45 143 117.05 142.5 115.55 142.2 114.2 141.95 111.8 142.25 109.85 142.2 108.4 142 107.75 141.7 107.3 141.3 106.85 140.9 106.65 140.9 78.35 141.65 74.65 141.95 72.1 142.3 68.65 143 65.85 142.55 60.95 141.95 58.55 142.8 57 143.1 56.3 143.25 55.65 143.3 54.4 143.2 53.85 143 53.3 143 52.65 143.4 49.4 144.1 46 144.75 44.45 144.8 43.1 144.55 42.45 144.2 41.85 143.65 41.25 142.25 40.2 141.6 39.6 140.65 38.35 140.25 37.65 139.9 36.25 139.9 35.55 137.25 37.05 135.95 37.55 135.7 37.6 132.3 37.85 131.15 38.15 130.75 38.35 130.45 38.65 129.2 38.35 127.1 38.25 125.5 38.55 124.95 38.85 124.5 39.2 124.2 39.7 123.45 38.35 122.35 35.9 121.85 33.55 121.85 31.3 122.1 30.3 131.5 26.1 133.25 25.5 134.8 24.85 137.5 23.45 139.5 21.75 140.9 19.85 143 17.8 143.15 14.35 143.4 12.75 143.55 12.25 143.8 11.75 144.1 11.45 144.8 11.45 146.05 11.7 147.1 12.25 147.85 13.05 148.2 13.6 154.55 16.7 161.85 16.7 163.9 13.6 164.95 15.65 165.9 15.35 171.2 14.65 173.05 14.45 173.4 14.35 173.4 14.3 173.8 14.3 174.15 14.2 174.15 14.1 174.6 14.1 175.7 13.4 175.9 13.15 176.1 13 176.5 12.55 193.65 9.4 197.55 9.65 197.65 9.6 198.9 9.6 199.55 9.45 199.65 9.4 200.2 9.4 201.1 9 201.25 9 202.2 8.55 202.55 8.3 202.6 8.15 Q202.8 8.1 202.95 8 L203.25 7.65 203.6 7.35 213.05 4.15 214.45 3.95 215.65 3.6 216.55 2.9 217.25 2.1 219.3 3.6 220.85 4.1 221.45 4.15 221.65 3.4 222.1 2.8 222.55 2.3 223.2 2 223.85 1.85 224.7 1.8 225.55 1.85 226.65 2.1 231.9 4.15 232.35 3.3 233.65 2 235.2 0.95 237.05 0.25 238.15 0 243.4 0 246.75 1 247.8 1.5 248.2 1.75 248.55 2.1 253.8 0 254.25 0.45 255.6 1.55 256.6 2 256.95 2.1 257.65 2.1 258.95 2.3 260 2.8 260.8 3.6 261.15 4.15 272.65 5.2 273.35 4.95"/>
    <path stroke="none" fill="#ffffff" d="M3 153.9 L4.3 153.4 4.95 153.35 5.5 153.4 6.1 153.65 8.05 156.65 9.45 157.8 10.35 158.15 10.8 158.25 11.35 158.3 12.35 158.2 13.4 157.85 13.45 157.95 14.7 159.65 15.9 160.75 16 160.8 16.15 160.9 16.55 160.95 16.95 161.45 17.65 162.45 17.85 163.05 17.9 163.5 17.9 164.1 17.6 165.15 35.35 179.8 43.75 182.9 59.35 193.35 Q60.4 192.85 61.5 192.3 L67.75 197.55 68.45 197.25 69.85 197.15 70.55 197.25 71.15 197.45 72.4 198.1 73.45 199 74.45 199.65 75.05 199.85 75.55 199.9 76.1 199.9 77.2 199.6 86.55 204.8 86.75 204.9 91.4 207.45 91.85 207.65 91.95 207.65 92.6 207.95 92.8 208 94.95 210.1 96 208 96.3 208.65 96.7 209.3 97.25 209.8 98 210.3 99.85 210.9 100.95 211.05 103 211.1 104.8 211.35 106.9 211.9 120 216.35 128.5 216.7 131.6 217.3 133.15 217.8 133.9 218.1 134.95 218.75 135.35 219.1 135.7 219.5 148.2 223.7 173.35 223.7 176.5 226.8 189 226.8 192.65 228.35 194.7 228.8 199.55 229.4 201.55 229.95 202.25 230.35 203.1 230.7 204.6 231 206.15 230.7 207.8 229.95 208.5 229.4 209.95 228.95 210.65 228.9 211.25 228.95 211.9 229.1 212.45 229.4 213.05 229.95 214.65 230.7 216.4 231 218.3 230.7 220.35 229.95 221.3 229.4 223.15 228.75 224.7 228.45 226.05 228.6 226.65 228.9 231.9 226.8 234.7 228.35 235.3 228.5 235.5 228.5 235.6 228.6 236.5 228.8 238.95 228.95 242.15 229.4 243.4 229.95 244.85 230.35 246.2 230.65 247.1 230.65 247.45 230.7 248.55 230.7 249.45 230.45 249.65 230.35 249.85 230.3 250.35 230.1 251.05 229.55 251.35 229.15 251.7 228.9 252.65 229.3 252.7 229.3 253.05 229.45 253.55 229.65 253.7 229.65 253.8 229.7 254.2 229.8 254.35 229.8 254.45 229.9 254.85 229.95 262.75 225.45 263.9 225.1 265.55 225 266.05 225.05 267.4 225.5 267.75 225.75 268.15 226.1 268.8 226.85 269.45 227.85 270.5 228.9 275.75 227.85 277.6 227.15 278.15 226.8 278.35 226.75 279.15 226.3 280.2 225.1 280.95 223.7 285.15 222.6 285.85 222.35 287.15 222.2 287.75 222.35 288.2 222.5 288.65 222.8 289 223.15 289.35 223.7 289.35 227.85 289.05 228.6 288.8 229.9 288.8 230.95 289.05 231.7 289.35 232.05 287.75 235.45 285.15 239.4 284.25 239.4 282.55 239.75 280.75 240.55 278.8 241.75 276.2 243.8 274.65 244.8 273.1 245.4 272.3 245.55 271.6 245.65 269.45 246.35 268 247.1 267.4 247.7 265.9 248 264.75 247.95 264.2 247.75 263.8 247.45 263.45 247.1 263.2 246.7 250.7 249.8 239.2 255 238.2 255.05 237.3 255.25 236.6 255.55 236.05 256.1 235.05 256.8 234.6 256.85 234.2 256.85 233.75 256.6 233.4 256.25 232.9 255 231.9 256.1 201.55 257.15 199.45 258.65 198.35 259.05 197.35 259.2 195.9 257.85 195.55 257.6 194.75 257.25 194.25 257.15 192.1 259.2 189.2 257.6 187.4 257.15 186.9 257.15 185.05 258.65 184.6 258.85 184.3 259.05 184.05 259.15 183.8 259.2 181.65 257.15 181.3 257.8 181.1 258.1 180.95 258.2 180.9 258.2 180.9 258.4 180.7 258.4 180.7 258.45 180.35 258.8 180.2 258.8 180.2 258.85 179.85 259.2 179.45 259.2 179.45 259.25 179.05 259.4 178.65 259.4 178.3 259.45 177.85 259.4 177.4 259.4 176.5 259.2 167.05 256.1 155.05 254.9 152.45 254.4 150.55 253.7 149.8 253.65 148.45 253.7 147.2 254.15 146.6 254.5 146.15 255 143 251.9 137.9 253.4 136.75 254 135.7 253.05 134.65 252.4 133.6 252 132.6 251.9 130.05 250.45 126.75 249.1 124.95 248.75 124.2 248.75 123.4 248.95 122.55 249 121.7 248.95 121 248.75 120.2 248.35 118.65 247.35 117.95 246.7 116.9 245.95 114.9 244.85 113.05 244.35 112.25 244.3 111.4 244.35 110.65 244.55 90.55 236.9 87.1 236.2 86.55 236.2 83.9 232.95 82.6 231.65 80 229.9 78.7 229.3 77.4 228.95 76.1 228.9 68.8 223.7 66.15 222.6 65.2 222.05 63.5 220.6 62.85 220.2 61.55 219.75 60.05 219.5 59.35 219.5 58.3 218.15 57.7 217.65 57.25 217.35 56.65 217.2 56.2 217.15 55.7 217.2 55.25 217.45 54.65 218.25 54.05 218.85 53.4 219.15 53.05 219.2 52.8 219.2 52.45 219.1 52.1 218.9 51.75 218.65 51.05 217.95 50 216.35 37.4 200.7 23.85 189.15 11.55 177 9.85 174.9 8.55 172.75 7.9 171.3 7.15 168.3 3.95 166.15 1.8 164 0.85 162.5 0.2 160.85 0 159.2 0 158.3 0.2 157.5 0.85 155.7 1.9 154.6 3 153.9"/>
  </g>
</g>
</svg>