<?xml version="1.0" encoding="utf-8"?>
<!DOCTYPE svg PUBLIC "-//W3C//DTD SVG 1.1//EN" "http://www.w3.org/Graphics/SVG/1.1/DTD/svg11.dtd">
<svg version="1.1" xmlns="http://www.w3.org/2000/svg" width="512" height="563" viewBox="0 0 512 563">
<g>
<rect fill="#F9F2DE" width="512" height="563" />
</g>
<g transform="scale(1.293,1.293)">
<g transform="translate(122.7,67)">
    <path stroke="none" fill="#ffffff" d="M48.1 91.2 L47.05 93 46.8 95.2 47.05 96.55 48.05 97.2 49.1 98.35 50.15 99.8 51.2 101.75 55.4 108.1 58.2 107.8 58.6 107.8 59.5 107.5 59.85 107.45 60.7 107 60.9 107 61.25 106.65 61.3 106.55 61.65 106.35 62.25 105.65 62.45 105.2 62.5 104.95 62.6 104.8 62.65 104.3 62.65 103.9 62.7 103.9 60.85 98.05 60.6 96.3 60.6 95.5 59.6 86.15 49.9 89.8 48.9 90.45 48.1 91.2 M87.85 165.45 L86.05 166.2 85.2 166.85 84.4 167.65 83.6 168.65 80.4 172.05 78.9 173.15 77.35 173.9 80.9 173.4 84.4 171.8 87.7 169.15 90.9 165.55 89.85 165.3 87.85 165.45 M103.5 115.65 L102.85 114.75 102.45 114.35 65.85 119.6 58.55 123.7 50.15 124.8 50.35 125.3 50.4 125.9 50.35 126.5 50.15 127.15 49.35 128.5 48.1 130.05 47.55 131.1 47.25 132.35 47.05 135.2 64.8 133.15 64.85 132.15 65.2 131.25 65.8 130.5 67.05 129.65 67.55 129.5 70.35 129 72.1 128.95 80.5 123.7 83.25 123.9 86.45 123.4 94.05 120.6 94.6 120.75 95.15 120.9 96.4 120.8 97.05 120.65 103.5 117.45 103.65 117.1 103.65 116.95 103.75 116.8 103.75 116.45 103.65 116.1 103.5 115.65 M76.95 85.7 L80.5 84 72.05 84 72.05 84.4 71.95 84.85 71.8 84.95 71.75 84.95 71.75 85.15 71.65 85.2 71.55 85.3 71.2 85.35 70.85 85.35 70.45 85.25 70.1 85.05 70.05 85.05 69.4 85.15 67.8 85.6 66.9 86.15 67.9 87.15 70.65 87.3 73.65 86.85 76.95 85.7 M91.45 86.5 L92 85.05 90.9 84.35 90 83.95 89.05 83.85 88.25 84 87.5 84.35 86.85 85 86.2 85.95 82.55 94.45 83.6 96.55 85.1 95.65 85.2 95.45 86.45 94.65 87.7 93.4 88.05 92.85 88.2 92.75 88.8 92.1 90.65 88.9 91.35 87 91.45 86.5 M118.1 75.65 L117.55 75.35 116.2 75.1 114.6 75.1 112.75 75.35 111.8 75.65 108.6 77.2 105.55 77.75 105.3 78.25 105.25 78.75 105.3 79.25 105.55 79.8 105.85 80.3 106.3 80.9 107.7 81.95 108.7 83.2 109.75 85.05 110.2 85 111.75 84.5 112.8 83.7 113.9 82.7 116 79.75 118.1 75.65 M109.15 0.95 L110.05 0.3 110.8 0 111.45 0.1 111.8 0.4 113.35 2.1 113.7 2.4 114.95 3.25 115.65 3.55 116.45 3.7 118.1 3.55 122.3 7.7 123.55 8.7 124.4 9.8 124.55 10.25 124.6 10.85 124.55 11.3 124.4 11.9 125.95 14.75 126.15 15.35 126.15 15.5 126.2 15.65 126.45 16.5 126.5 17.1 126.75 18.05 127.35 19.7 127.75 20.45 128.65 21.6 129.1 22 129.65 22.35 133.5 22.6 135.25 22.9 136.95 23.4 142.15 30.75 141.05 34.1 140.9 34.35 140.55 35.15 140.05 35.9 138.75 35.9 136.65 36.15 135.05 36.7 134.55 37.1 134.1 37.5 133.8 38.05 116 41.15 108.7 48.5 87.8 66.25 88.7 66.8 89.9 67.9 90.9 69.4 94.45 68 98.4 67.3 109.75 67.3 117.05 62.05 117.75 61.05 119.3 59.7 120.85 59.25 121.65 59.3 122.5 59.5 123.3 60 125.05 59.95 125.4 59.9 129.05 59.7 130 59.5 130.35 59.4 130.35 59.35 130.75 59.35 131.3 59.1 131.45 59 131.7 58.95 133.15 59.8 133.3 59.9 136.95 62.05 144.6 64.65 146.25 65.4 146.7 65.65 147.4 66.25 147.45 66.35 148.7 68.1 149.85 69.15 150 69.2 150.15 69.3 150.5 69.4 149.45 77.75 149.1 78.95 148.85 79.45 148.7 80.05 148.15 81 148.05 81.05 147.6 81.9 147.25 82.05 147.2 82.2 146.85 82.55 146.5 82.7 146.45 82.85 146.1 83.2 145.6 83.35 145.2 83.6 144.25 84 143.45 83.75 142.75 83.7 142 83.75 140.7 84.3 139.55 85.35 138.4 87 138.3 87.1 137.9 87.9 137.55 88.2 136.65 89.2 135.6 89.8 135.4 89.8 135.4 89.85 135.3 89.95 134.9 89.95 134.9 90.05 134.55 90.15 133.8 90.25 118.1 98.65 133.8 110.15 142.15 114.35 142.15 131.05 138.85 134.65 135.35 137.3 131.5 138.9 128.45 139.35 127.5 139.4 122.5 141.7 119.35 143.7 118.35 144.7 118.25 145.05 118.1 145.65 120.2 146.15 121.9 146.95 122.8 147.75 123.45 148.55 123.95 149.55 124.25 150.7 124.4 152 124.4 160.3 118.1 168.65 110.8 177.05 110.55 177.05 110.4 177.15 110.15 177.3 110 177.6 109.65 177.9 109 178.75 108.7 179.35 108.2 179.95 104.5 186.45 105.85 188.3 107.05 189.4 107.15 189.45 107.35 189.55 107.7 189.6 109.5 191.05 110 191.6 110.55 192.7 110.75 193.15 110.8 193.75 99.65 199.3 93.85 201.4 89.45 202.2 87.8 202.15 86.2 201.35 83.3 200.4 80.7 200.2 79.55 200.3 78.35 200.6 77.35 201.05 76.45 201.35 74.75 202.55 73.95 203.4 73.4 203.85 71.45 206.15 70.05 208.4 67.25 211.9 65.5 215 64.8 216.75 55.4 225.15 54.6 225.2 53.85 225.35 53.15 225.65 51.85 226.65 50.7 228.3 43.9 241.85 26.15 257.55 16.65 261.3 12 262.25 9.2 262.25 6.85 261.85 4.8 260.95 3.15 259.65 0.75 256.9 0.5 256.25 0.3 255.6 0.35 255.1 0.6 254.7 1.05 254.4 1.35 253.65 1.85 253 2.5 252.45 4.3 251.65 6.85 251.25 8.4 251.25 24 236.65 39.7 219.9 39.95 219.85 40.25 219.7 40.95 219.3 42.8 217.5 48.1 210.5 63.8 192.75 58.95 185.6 57.65 183.25 56.15 179.3 56 177.75 56.15 176.45 56.45 176 56.15 175.3 55.75 173.35 55.7 172.05 56.15 169.45 57.55 166.85 58.55 165.55 62.7 154.05 63.25 153 64.1 152.1 65.1 151.25 67.7 149.95 71.1 149.1 74.6 148.75 75.1 148.75 76.95 148.5 79.95 147.5 81.15 146.7 82 145.85 82.15 145.85 82.15 145.7 82.55 145.3 82.55 145.2 82.95 144.8 83.6 143.6 85.5 143.25 87.2 142.25 88.6 140.6 88.75 140.3 89.25 139.55 89.85 138.35 88.85 137.35 81.55 139.4 75.25 143.6 74.65 143.6 73.45 143.85 72.15 144.3 70.75 145.15 70.05 145.65 68.85 146.9 68.5 147.1 68.35 147.1 68.35 147.15 68.2 147.25 67.6 147.5 66.9 147.5 66.55 147.45 66.25 147.45 65.9 147.25 65.85 147.25 65.5 147.15 64.8 146.7 60.6 150.25 56.65 152.75 52.8 153.9 50.9 154.1 49.1 154.05 48.5 154.7 48.15 155 47.95 155.1 47.85 155.3 46.45 156.1 45.6 156.3 44.75 156.3 44.75 156.35 42.85 156.15 41.7 156.45 39.2 157.7 28.15 167.15 25.1 168.9 21.9 169.75 20.35 169.85 16.95 169.6 13.3 168.65 9.6 166.85 5.95 164.05 4.2 162.4 4.3 161.6 4.25 160.9 4 160.2 3.6 159.55 2.95 158.9 2.2 158.3 0 157.15 0.2 155.05 0.7 153.05 1.6 151.05 4.45 147.15 5.3 146.2 11.5 141.55 12.2 140.7 13.65 139.4 16.1 137.6 20.35 136 23 134.2 23.7 134.35 24.55 134.35 26.1 133.85 27.6 132.75 30 130.25 31.5 129.1 33.05 128.25 33.85 128.1 35.5 127.9 44.95 118.5 43.9 117.6 42.85 116.95 41.8 116.5 40.75 116.4 36.6 116.4 30.35 111.2 27.15 102.85 26.4 102.2 25.75 101.45 25.2 100.6 24.35 98.5 24 95.95 24 94.45 24.15 94.4 24.65 94.4 24.95 94.25 25.3 94.2 25.55 94.05 25.85 93.9 26.3 93.65 26.6 93.15 26.75 92.85 26.9 92.6 26.95 92.25 27.1 91.95 27.1 91.45 27.15 91.3 27.7 89.85 28.45 88.65 29.35 87.75 30.35 87.15 35.5 88.2 35.5 88.15 36.4 88.15 37.3 88 37.65 87.9 38 87.85 38.3 87.75 38.65 87.65 39.4 86.95 39.5 86.7 39.6 86.55 39.65 86.3 39.65 86.15 39.7 86.15 52.3 78.8 61.65 75.65 70.05 71.5 71 71.85 72 72.05 73.95 71.7 75.65 70.45 77.35 68.3 87.8 51.6 88.85 50.6 88.9 50.5 89.25 50.3 89.45 49.95 89.55 49.9 90.65 48.75 93.05 44.3 90.1 44 87.8 43.25 79.4 46.35 72.1 51.6 70.05 62.05 64.8 72.5 64.2 72.7 63.65 72.9 63.3 73 62.45 73.25 61.05 73.45 60.65 73.45 59.6 73.55 57.85 72.15 55.65 69.95 54.5 68.5 53.3 66.15 52.45 63.6 52.35 62.75 52.3 61 51.4 59.9 50.55 59.1 50.1 58.8 49.7 58.7 48.85 58.65 48.35 58.7 47.85 58.95 46.4 60 45.9 60.6 44.95 62.05 42.85 64.2 42.45 63.4 42.2 63.05 41.6 62.55 41.25 62.35 39.95 61.9 38.3 61.75 36.25 61.9 35.5 62.05 32.85 59.7 29.85 56.15 28.55 53.8 27.8 51.45 27.55 49.1 27.8 46.7 28.6 44.35 29.25 43.25 29.7 42.7 30.55 42.05 31.4 41.8 32.05 41.95 32.4 42.25 43.9 45.35 44.2 44.6 44.6 43.95 45.1 43.4 46.4 42.6 48.1 42.25 49.1 42.25 55.4 41.15 57.45 10.85 60.9 9.5 64.15 8.8 64.8 8.8 66.2 9.3 67.55 10.1 68.1 10.5 69.75 12.15 70.85 14.05 71.2 14.8 75.25 29.65 77.35 34.85 85.75 34.85 88.5 33.85 90 33.05 95.3 29.15 99.3 25.5 103.5 18.15 104.3 16.2 104.5 15.65 104.6 14.45 104.5 13.4 104 12.3 103.45 11.45 102.5 10.55 101.35 9.8 101.45 9.35 102.1 7.6 102.35 7.2 105.55 1.45 108.7 1.45 109.15 0.95"/>
  </g>
</g>
</svg>